<svg width="18" height="22" viewBox="0 0 18 22" fill="none" xmlns="http://www.w3.org/2000/svg">
<g id="Profile">
<g id="Group 3">
<g id="Fill 1">
<path fill-rule="evenodd" clip-rule="evenodd" d="M8.921 14.9961C4.66 14.9961 2.5 15.7281 2.5 17.1731C2.5 18.6311 4.66 19.3701 8.921 19.3701C13.181 19.3701 15.34 18.6381 15.34 17.1931C15.34 15.7351 13.181 14.9961 8.921 14.9961ZM8.921 20.8701C6.962 20.8701 1 20.8701 1 17.1731C1 13.8771 5.521 13.4961 8.921 13.4961C10.88 13.4961 16.84 13.4961 16.84 17.1931C16.84 20.4891 12.32 20.8701 8.921 20.8701Z" fill="white"/>
<path d="M8.921 14.7961C6.78427 14.7961 5.1526 14.979 4.04841 15.3533C2.94903 15.726 2.3 16.3189 2.3 17.1731H2.7C2.7 16.5823 3.13097 16.0867 4.17684 15.7321C5.2179 15.3792 6.79673 15.1961 8.921 15.1961V14.7961ZM2.3 17.1731C2.3 18.0328 2.94751 18.6311 4.04788 19.0076C5.1523 19.3855 6.78419 19.5701 8.921 19.5701V19.1701C6.79681 19.1701 5.2182 18.9852 4.17737 18.6291C3.13249 18.2716 2.7 17.7714 2.7 17.1731H2.3ZM8.921 19.5701C11.0572 19.5701 12.6884 19.3872 13.7922 19.0129C14.8913 18.6402 15.54 18.0473 15.54 17.1931H15.14C15.14 17.7839 14.7092 18.2795 13.6638 18.6341C12.6231 18.987 11.0448 19.1701 8.921 19.1701V19.5701ZM15.54 17.1931C15.54 16.3335 14.8928 15.7351 13.7928 15.3586C12.6887 14.9807 11.0573 14.7961 8.921 14.7961V15.1961C11.0447 15.1961 12.6228 15.381 13.6632 15.7371C14.7077 16.0946 15.14 16.5947 15.14 17.1931H15.54ZM8.921 20.6701C7.93865 20.6701 5.98378 20.6691 4.27734 20.2147C3.42436 19.9876 2.65131 19.6515 2.09445 19.1604C1.54425 18.6752 1.2 18.0352 1.2 17.1731H0.8C0.8 18.1595 1.201 18.9058 1.82989 19.4604C2.45213 20.0092 3.29201 20.3663 4.17441 20.6012C5.93872 21.0711 7.94435 21.0701 8.921 21.0701V20.6701ZM1.2 17.1731C1.2 16.4003 1.46292 15.808 1.90414 15.3462C2.35007 14.8795 2.9876 14.5366 3.74752 14.2887C5.27006 13.7922 7.22235 13.6961 8.921 13.6961V13.2961C7.21965 13.2961 5.21144 13.3905 3.62348 13.9085C2.82815 14.1679 2.12293 14.5382 1.61492 15.0699C1.1022 15.6065 0.8 16.2979 0.8 17.1731H1.2ZM8.921 13.6961C9.90335 13.6961 11.8577 13.6971 13.5636 14.1515C14.4164 14.3786 15.1892 14.7147 15.7458 15.2057C16.2959 15.6909 16.64 16.331 16.64 17.1931H17.04C17.04 16.2067 16.6391 15.4604 16.0104 14.9058C15.3884 14.357 14.5488 13.9999 13.6666 13.765C11.9028 13.2951 9.89765 13.2961 8.921 13.2961V13.6961ZM16.64 17.1931C16.64 17.9659 16.3771 18.5582 15.936 19.02C15.4902 19.4867 14.8528 19.8296 14.0931 20.0775C12.5709 20.574 10.6191 20.6701 8.921 20.6701V21.0701C10.6219 21.0701 12.6296 20.9757 14.2172 20.4577C15.0123 20.1983 15.7174 19.828 16.2253 19.2963C16.7379 18.7596 17.04 18.0683 17.04 17.1931H16.64Z" fill="white"/>
</g>
</g>
<g id="Group 6">
<g id="Fill 4">
<path fill-rule="evenodd" clip-rule="evenodd" d="M8.92089 2.42769C6.77989 2.42769 5.03789 4.16869 5.03789 6.30969C5.03089 8.4437 6.75989 10.1837 8.89189 10.1917L8.92089 10.9057V10.1917C11.0609 10.1917 12.8019 8.44969 12.8019 6.30969C12.8019 4.16869 11.0609 2.42769 8.92089 2.42769ZM8.92089 11.6187H8.8889C5.9669 11.6097 3.59989 9.2267 3.60989 6.30669C3.60989 3.3817 5.99189 0.999695 8.92089 0.999695C11.8489 0.999695 14.2299 3.38169 14.2299 6.30969C14.2299 9.23769 11.8489 11.6187 8.92089 11.6187Z" fill="white"/>
<path d="M5.03789 6.30969L5.23789 6.31035V6.30969H5.03789ZM8.89189 10.1917L9.09173 10.1836L9.08397 9.99241L8.89265 9.9917L8.89189 10.1917ZM8.92089 10.9057L8.72106 10.9138L9.12089 10.9057H8.92089ZM8.92089 10.1917V9.99169H8.72089V10.1917H8.92089ZM8.8889 11.6187L8.88828 11.8187H8.8889V11.6187ZM3.60989 6.30669L3.80989 6.30738V6.30669H3.60989ZM8.92089 2.22769C6.6695 2.22769 4.83789 4.05817 4.83789 6.30969H5.23789C5.23789 4.27922 6.89028 2.62769 8.92089 2.62769V2.22769ZM4.8379 6.30904C4.83053 8.55347 6.64874 10.3833 8.89114 10.3917L8.89265 9.9917C6.87105 9.98411 5.23126 8.33392 5.23789 6.31035L4.8379 6.30904ZM8.69206 10.1998L8.72106 10.9138L9.12073 10.8976L9.09173 10.1836L8.69206 10.1998ZM9.12089 10.9057V10.1917H8.72089V10.9057H9.12089ZM8.92089 10.3917C11.1714 10.3917 13.0019 8.56008 13.0019 6.30969H12.6019C12.6019 8.3393 10.9504 9.99169 8.92089 9.99169V10.3917ZM13.0019 6.30969C13.0019 4.05827 11.1714 2.22769 8.92089 2.22769V2.62769C10.9504 2.62769 12.6019 4.27912 12.6019 6.30969H13.0019ZM8.92089 11.4187H8.8889V11.8187H8.92089V11.4187ZM8.88951 11.4187C6.07797 11.41 3.80027 9.11687 3.80989 6.30738L3.4099 6.30601C3.39952 9.33652 5.85582 11.8094 8.88828 11.8187L8.88951 11.4187ZM3.80989 6.30669C3.80989 3.49225 6.10225 1.19969 8.92089 1.19969V0.799695C5.88154 0.799695 3.40989 3.27114 3.40989 6.30669H3.80989ZM8.92089 1.19969C11.7384 1.19969 14.0299 3.4921 14.0299 6.30969H14.4299C14.4299 3.27129 11.9594 0.799695 8.92089 0.799695V1.19969ZM14.0299 6.30969C14.0299 9.12724 11.7384 11.4187 8.92089 11.4187V11.8187C11.9594 11.8187 14.4299 9.34815 14.4299 6.30969H14.0299Z" fill="white"/>
</g>
</g>
</g>
</svg>
